HIERARCHY
ROOT Hips
{
    OFFSET 0.000000 0.000000 0.000000
    CHANNELS 6 Xposition Yposition Zposition Zrotation Xrotation Yrotation
    JOINT Spine
    {
        OFFSET -0.000000 14.517291 0.000000
        CHANNELS 3 Zrotation Xrotation Yrotation
        JOINT Spine1
        {
            OFFSET -0.000000 37.558300 0.000000
            CHANNELS 3 Zrotation Xrotation Yrotation
            JOINT Neck
            {
                OFFSET -0.000000 37.404057 3.400369
                CHANNELS 3 Zrotation Xrotation Yrotation
                JOINT Head
                {
                    OFFSET -0.000000 24.785618 -3.540803
                    CHANNELS 3 Zrotation Xrotation Yrotation
                    End Site
                    {
                        OFFSET -0.000000 35.408028 0.000000
                    }
                }
            }
            JOINT LeftShoulder
            {
                OFFSET 6.992933 33.973492 -0.192664
                CHANNELS 3 Zrotation Xrotation Yrotation
                JOINT LeftArm
                {
                    OFFSET 21.527611 0.000000 0.000000
                    CHANNELS 3 Zrotation Xrotation Yrotation
                    JOINT LeftForeArm
                    {
                        OFFSET 56.353916 0.000000 0.000000
                        CHANNELS 3 Zrotation Xrotation Yrotation
                        JOINT LeftHand
                        {
                            OFFSET 47.774071 0.000000 0.000000
                            CHANNELS 3 Zrotation Xrotation Yrotation
                            End Site
                            {
                                OFFSET 26.556021 0.000000 0.000000
                            }
                        }
                    }
                }
            }
            JOINT RightShoulder
            {
                OFFSET -7.065357 33.973492 -0.192664
                CHANNELS 3 Zrotation Xrotation Yrotation
                JOINT RightArm
                {
                    OFFSET -21.527611 0.000000 0.000000
                    CHANNELS 3 Zrotation Xrotation Yrotation
                    JOINT RightForeArm
                    {
                        OFFSET -56.353916 0.000000 0.000000
                        CHANNELS 3 Zrotation Xrotation Yrotation
                        JOINT RightHand
                        {
                            OFFSET -47.774071 0.000000 0.000000
                            CHANNELS 3 Zrotation Xrotation Yrotation
                            End Site
                            {
                                OFFSET -26.556021 0.000000 0.000000
                            }
                        }
                    }
                }
            }
        }
    }
    JOINT LeftUpLeg
    {
        OFFSET 17.704014 0.000000 0.000000
        CHANNELS 3 Zrotation Xrotation Yrotation
        JOINT LeftLeg
        {
            OFFSET -0.000000 -81.181816 0.000000
            CHANNELS 3 Zrotation Xrotation Yrotation
            JOINT LeftFoot
            {
                OFFSET -0.000000 -62.821102 0.000000
                CHANNELS 3 Zrotation Xrotation Yrotation
                JOINT LeftToeBase
                {
                    OFFSET -0.000000 -11.507608 26.556021
                    CHANNELS 3 Zrotation Xrotation Yrotation
                    End Site
                    {
                        OFFSET -0.000000 0.000000 7.081605
                    }
                }
            }
        }
    }
    JOINT RightUpLeg
    {
        OFFSET -17.704014 0.000000 0.000000
        CHANNELS 3 Zrotation Xrotation Yrotation
        JOINT RightLeg
        {
            OFFSET -0.000000 -81.181816 0.000000
            CHANNELS 3 Zrotation Xrotation Yrotation
            JOINT RightFoot
            {
                OFFSET -0.000000 -62.821102 0.000000
                CHANNELS 3 Zrotation Xrotation Yrotation
                JOINT RightToeBase
                {
                    OFFSET -0.000000 -11.507608 26.556021
                    CHANNELS 3 Zrotation Xrotation Yrotation
                    End Site
                    {
                        OFFSET -0.000000 0.000000 7.081605
                    }
                }
            }
        }
    }
}
MOTION
Frames:    12
Frame Time:    0.008333
-23.038410    165.451843    -20.017796    -9.987289    -20.941689    41.219551    2.572332    3.425506    -7.514060    2.513290    8.358140    -2.664042    25.202961    2.337636    -0.373310    -3.604525    -2.299888    -4.246573    13.226618    9.497110    -26.486023    -30.620155    14.543324    -61.262283    5.021720    -41.280746    -97.458969    -17.058792    -34.291119    -20.612831    17.379641    6.665596    -12.480463    45.477760    17.537050    36.613461    -18.851896    -42.597221    87.653488    -4.540091    -27.760281    4.104038    24.632879    -2.059633    6.910283    -3.393780    34.283329    -17.856783    7.914768    -18.335493    31.541611    0.000000    0.000000    0.000000    -94.526596    -46.411610    -57.878555    8.531868    20.025476    -7.241594    16.655838    20.099304    -24.445433    0.000000    0.000000    0.000000    
-23.029379    165.464294    -20.030436    -10.019575    -20.924282    41.198895    2.603712    3.420389    -7.517718    2.443499    8.370031    -2.660120    25.249752    2.372998    -0.369458    -3.622706    -2.397795    -4.246688    13.266126    9.457882    -26.435488    -30.596092    14.501134    -61.218609    5.038228    -41.299385    -97.444984    -17.043587    -34.299541    -20.612740    17.423307    6.558335    -12.453927    44.980988    16.994307    36.094776    -18.063269    -41.597294    88.147888    -4.510970    -27.143528    4.424568    24.637693    -2.076332    6.925362    -3.396962    34.261093    -17.841267    7.904076    -18.324514    31.541979    0.000000    0.000000    0.000000    -94.536911    -46.417213    -57.908047    8.526357    20.019003    -7.279798    16.652700    20.111275    -24.425791    0.000000    0.000000    0.000000    
-23.020033    165.479523    -20.037052    -10.045754    -20.925652    41.182400    2.635245    3.443394    -7.528694    2.388868    8.372989    -2.659388    25.349464    2.358663    -0.347536    -3.706779    -2.443904    -4.255685    13.286697    9.421381    -26.358017    -30.565838    14.454840    -61.181515    5.010771    -41.295017    -97.456238    -17.048100    -34.316738    -20.631571    17.431259    6.451570    -12.436123    44.477386    16.348146    35.550629    -17.122593    -40.410988    88.719269    -4.605405    -26.456867    4.827003    24.649496    -2.079266    6.948770    -3.383637    34.244164    -17.856300    7.883529    -18.314003    31.548738    0.000000    0.000000    0.000000    -94.520882    -46.424484    -57.901009    8.525122    20.019352    -7.286173    16.651972    20.099926    -24.441204    0.000000    0.000000    0.000000    
-23.004732    165.485764    -20.042805    -10.066954    -20.920778    41.172462    2.685641    3.403203    -7.556496    2.261637    8.457180    -2.660788    25.400419    2.404588    -0.333611    -3.674398    -2.553675    -4.235536    13.337358    9.365514    -26.282444    -30.528456    14.400723    -61.128204    5.014841    -41.319492    -97.423775    -17.142410    -34.318272    -20.706711    17.456121    6.327305    -12.359305    43.944347    15.699951    34.958878    -16.256559    -39.243439    89.175964    -4.285871    -25.772308    5.332088    24.651960    -2.087883    6.965361    -3.363528    34.238083    -17.880236    7.896600    -18.305264    31.543823    0.000000    0.000000    0.000000    -94.517555    -46.423069    -57.929340    8.513859    20.021353    -7.257875    16.649334    20.093464    -24.436321    0.000000    0.000000    0.000000    
-22.990345    165.489365    -20.051519    -10.083728    -20.906654    41.162552    2.703102    3.407036    -7.564384    2.182203    8.478348    -2.657723    25.384081    2.499214    -0.350219    -3.585635    -2.710578    -4.218933    13.372120    9.323904    -26.222094    -30.492044    14.356444    -61.082256    5.009570    -41.339100    -97.408051    -17.183403    -34.335125    -20.742895    17.446886    6.214881    -12.338617    43.327431    15.048781    34.386288    -15.399769    -37.984810    89.555901    -4.266824    -25.033354    5.861259    24.646288    -2.106499    6.987726    -3.355773    34.243874    -17.887312    7.891267    -18.305452    31.552145    0.000000    0.000000    0.000000    -94.527786    -46.420086    -57.943348    8.519248    20.009272    -7.252687    16.633379    20.095232    -24.452475    0.000000    0.000000    0.000000    
-22.978231    165.494125    -20.055243    -10.106401    -20.906239    41.157787    2.730141    3.420367    -7.575857    2.110032    8.489029    -2.656029    25.387264    2.535547    -0.355890    -3.498651    -2.796047    -4.204992    13.395903    9.295357    -26.193180    -30.459240    14.286730    -60.996887    4.983753    -41.333145    -97.421875    -17.103527    -34.369595    -20.700741    17.396515    6.100641    -12.291522    42.772366    14.255461    33.731865    -14.483437    -36.541916    89.951202    -4.173809    -24.160765    6.381446    24.659178    -2.124108    6.992089    -3.354937    34.255367    -17.898378    7.919131    -18.293987    31.563318    0.000000    0.000000    0.000000    -94.517197    -46.426304    -57.972164    8.489188    20.019476    -7.234512    16.624567    20.097338    -24.440208    0.000000    0.000000    0.000000    
-22.964481    165.497498    -20.061747    -10.133407    -20.893978    41.155071    2.744091    3.414567    -7.587772    2.047831    8.513550    -2.655736    25.438814    2.566822    -0.360279    -3.477062    -2.877771    -4.207918    13.418538    9.267670    -26.169250    -30.432287    14.207472    -60.901428    4.978953    -41.323849    -97.420967    -17.110788    -34.362041    -20.708111    17.311939    5.964880    -12.232686    42.140514    13.508548    33.047413    -13.768295    -35.102734    90.123596    -4.049486    -23.186056    7.035746    24.666817    -2.155748    6.993837    -3.360005    34.267239    -17.888184    7.908470    -18.294830    31.553997    0.000000    0.000000    0.000000    -94.514214    -46.419716    -57.996044    8.467123    20.011412    -7.211135    16.646517    20.091803    -24.439680    0.000000    0.000000    0.000000    
-22.949255    165.499573    -20.065084    -10.161138    -20.887100    41.151917    2.778822    3.416069    -7.595948    1.959057    8.526204    -2.651711    25.475243    2.586348    -0.369558    -3.427137    -2.941729    -4.211377    13.441452    9.229492    -26.155239    -30.421181    14.115305    -60.777969    4.900255    -41.269436    -97.478287    -17.105652    -34.372276    -20.711016    17.225380    5.842632    -12.183973    41.468510    12.730177    32.358772    -12.906723    -33.592194    90.357346    -3.983793    -22.285143    7.703380    24.681154    -2.183758    7.001428    -3.370715    34.286041    -17.888174    7.918094    -18.298410    31.576490    0.000000    0.000000    0.000000    -94.510918    -46.409943    -57.993290    8.471686    20.001326    -7.207594    16.646885    20.087852    -24.446495    0.000000    0.000000    0.000000    
-22.930037    165.507828    -20.065079    -10.185949    -20.887182    41.148849    2.802864    3.429862    -7.607258    1.893235    8.531186    -2.650333    25.512312    2.632972    -0.389176    -3.395273    -3.036860    -4.223214    13.449666    9.193014    -26.132759    -30.407028    14.052855    -60.663216    4.872719    -41.241562    -97.494598    -17.088795    -34.368992    -20.711063    17.104826    5.732525    -12.126348    40.736752    11.996627    31.680906    -12.121367    -32.134617    90.482185    -4.154335    -21.430777    8.267511    24.698467    -2.190391    6.997504    -3.379142    34.291920    -17.885508    7.702142    -18.376713    31.573891    0.000000    0.000000    0.000000    -94.486588    -46.406208    -58.000164    8.457289    19.989391    -7.206243    16.621037    20.098663    -24.417728    0.000000    0.000000    0.000000    
-22.916477    165.509491    -20.068573    -10.222570    -20.876434    41.144379    2.841003    3.423642    -7.607869    1.793473    8.544826    -2.642990    25.679897    2.622159    -0.387425    -3.493861    -3.085741    -4.264003    13.491504    9.155118    -26.121923    -30.381964    13.996830    -60.563007    4.852509    -41.230576    -97.495262    -17.119322    -34.366306    -20.749287    16.991974    5.588898    -12.054515    39.996635    11.208498    30.911963    -11.381846    -30.605284    90.605438    -3.968399    -20.448606    8.737854    24.722210    -2.229686    7.010359    -3.393615    34.295517    -17.859589    7.915484    -18.301603    31.544546    0.000000    0.000000    0.000000    -94.476074    -46.403675    -58.040890    8.418244    19.980087    -7.171552    16.656027    20.105816    -24.421940    0.000000    0.000000    0.000000    
-22.894543    165.516739    -20.065195    -10.247340    -20.873072    41.144276    2.891049    3.418739    -7.618075    1.666601    8.565926    -2.636747    25.753756    2.649961    -0.400232    -3.466102    -3.162667    -4.278103    13.522655    9.132520    -26.100954    -30.373373    13.892321    -60.439911    4.756052    -41.132362    -97.558258    -17.079922    -34.353691    -20.726797    16.859165    5.441493    -11.952613    39.247158    10.389597    30.112764    -10.536434    -28.983332    90.777443    -4.124804    -19.504848    9.147038    24.738295    -2.245073    7.013740    -3.404064    34.298481    -17.856218    7.916039    -18.301300    31.548647    0.000000    0.000000    0.000000    -94.453590    -46.390682    -58.036068    8.412639    19.956547    -7.178650    16.647629    20.110693    -24.406694    0.000000    0.000000    0.000000    
-22.865423    165.529449    -20.056328    -10.268065    -20.891693    41.150898    2.947772    3.428678    -7.623649    1.552907    8.587314    -2.629725    25.756773    2.746501    -0.428964    -3.369113    -3.319650    -4.273746    13.557222    9.114037    -26.086647    -30.399937    13.764226    -60.320972    4.639678    -40.985722    -97.633408    -16.957386    -34.326496    -20.648138    16.713108    5.294511    -11.869520    38.417252    9.627420    29.326708    -9.644273    -27.414564    90.923012    -4.326459    -18.697311    9.558737    24.764664    -2.237541    7.015668    -3.407322    34.292652    -17.857405    7.916138    -18.302410    31.540295    0.000000    0.000000    0.000000    -94.399345    -46.375534    -58.010284    8.399931    19.948608    -7.167049    16.634319    20.094820    -24.383678    0.000000    0.000000    0.000000    
